ply
format ascii 1.0
element vertex 10
property float x
property float y
property float z
element face 18
property list uchar uint vertex_indices
end_header
18.9958793027 17.6726866813 2.17466323394
200.838073197 112.531978787 -0.0
351.893095768 -13.3630289532 0.0
400.0 100.0 0.0
196.616541353 124.360902256 -0.0
48.1069042316 -13.3630289532 550.0
197.905082154 126.973343925 550.0
379.389312977 -11.4503816794 550.0
387.777777778 87.7777777778 550.0
4.07407407407 91.8518518519 550.0
3 0 1 5
3 0 1 4
3 0 4 9
3 0 5 9
3 1 2 6
3 1 2 3
3 1 3 8
3 1 4 6
3 1 4 8
3 1 5 6
3 1 6 8
3 2 3 7
3 2 6 7
3 3 7 8
3 4 6 9
3 4 6 8
3 5 6 9
3 6 7 8
