ply
format ascii 1.0
element vertex 20
property float x
property float y
property float z
element face 36
property list uchar uint vertex_indices
end_header
0.0 0.0 0.0
100.0 0.0 0.0
200.0 120.0 0.0
300.0 0.0 0.0
400.0 0.0 0.0
400.0 100.0 0.0
290.0 100.0 0.0
200.0 130.0 0.0
110.0 100.0 0.0
0.0 100.0 0.0
0.0 0.0 550.0
100.0 0.0 550.0
200.0 120.0 550.0
300.0 0.0 550.0
400.0 0.0 550.0
400.0 100.0 550.0
290.0 100.0 550.0
200.0 130.0 550.0
110.0 100.0 550.0
0.0 100.0 550.0
3 0 1 9
3 0 1 10
3 0 10 19
3 0 9 19
3 1 2 8
3 1 2 11
3 1 8 9
3 1 10 11
3 2 3 12
3 2 3 6
3 2 6 7
3 2 7 8
3 2 11 12
3 3 4 5
3 3 4 13
3 3 5 6
3 3 12 13
3 4 13 14
3 4 5 14
3 5 6 15
3 5 14 15
3 6 7 16
3 6 15 16
3 7 8 17
3 7 16 17
3 8 9 18
3 8 17 18
3 9 18 19
3 10 11 19
3 11 12 18
3 11 18 19
3 12 13 16
3 12 16 17
3 12 17 18
3 13 14 15
3 13 15 16
