ply
format ascii 1.0
element vertex 16
property float x
property float y
property float z
element face 30
property list uchar uint vertex_indices
end_header
0.0 0.0 0.0
100.0 0.0 0.0
200.838073197 112.531978787 -0.0
300.0 0.0 0.0
400.0 0.0 0.0
400.0 100.0 0.0
196.616541353 124.360902256 -0.0
0.0 100.0 0.0
0.0 0.0 550.0
100.0 0.0 550.0
197.905082154 126.973343925 550.0
300.0 0.0 550.0
400.0 0.0 550.0
400.0 100.0 550.0
290.0 100.0 550.0
4.07407407407 91.8518518519 550.0
3 0 1 7
3 0 1 8
3 0 8 15
3 0 7 15
3 1 2 9
3 1 2 6
3 1 6 7
3 1 8 9
3 2 3 10
3 2 3 5
3 2 5 13
3 2 6 14
3 2 6 10
3 2 9 10
3 2 10 14
3 2 13 14
3 3 4 5
3 3 4 11
3 3 10 11
3 4 11 12
3 4 5 12
3 5 12 13
3 6 7 15
3 6 10 14
3 6 10 15
3 8 9 15
3 9 10 15
3 10 11 14
3 11 12 13
3 11 13 14
