ply
format ascii 1.0
comment Created by Blender 2.78 (sub 0) - www.blender.org, source file: ''
element vertex 505
property float x
property float y
property float z
element face 967
property list uchar uint vertex_indices
end_header
1.468739 -1.569890 0.819142
1.499989 -1.499577 0.670705
1.562489 -1.483952 0.819142
0.499988 -1.499577 0.670705
0.531238 -1.569890 0.819142
0.437488 -1.483952 0.819142
1.546864 -1.390202 0.631642
1.624989 -1.374577 0.819142
0.453113 -1.390202 0.631642
0.374988 -1.374577 0.819142
1.351551 -1.429265 0.553517
0.648426 -1.429265 0.553517
1.437489 -1.577702 0.741017
1.351551 -1.530827 0.608205
0.648426 -1.530827 0.608205
0.562488 -1.577702 0.741017
1.351551 -1.593327 0.709767
1.203114 -1.554265 0.670705
0.796863 -1.554265 0.670705
0.648426 -1.593327 0.709767
1.156239 -1.460515 0.631642
0.843738 -1.460515 0.631642
1.140614 -1.554265 0.819142
0.859363 -1.554265 0.819142
0.921863 -1.468327 0.819142
1.273426 -1.608952 0.741017
0.726551 -1.608952 0.741017
1.242176 -1.608952 0.819142
1.203114 -1.554265 0.967580
0.796863 -1.554265 0.967580
0.757801 -1.608952 0.819142
1.078114 -1.468327 0.819142
0.843738 -1.460515 1.014455
1.351551 -1.530827 1.030080
1.156239 -1.460515 1.014455
0.648426 -1.530827 1.030080
0.648426 -1.429265 1.092580
1.351551 -1.593327 0.936330
1.273426 -1.608952 0.905080
0.648426 -1.593327 0.936330
1.437489 -1.577702 0.905080
0.562488 -1.577702 0.905080
0.499988 -1.499577 0.967580
1.499989 -1.499577 0.967580
1.351551 -1.429265 1.092580
0.453113 -1.390202 1.014455
1.546864 -1.390202 1.014455
1.476551 -1.585515 0.819142
0.523426 -1.585515 0.819142
0.554676 -1.593327 0.912892
1.445301 -1.593327 0.912892
0.648426 -1.616765 0.951955
1.351551 -1.616765 0.951955
0.726551 -1.608952 0.905080
0.734363 -1.632390 0.912892
1.265614 -1.632390 0.912892
0.773426 -1.632390 0.819142
1.265614 -1.632390 0.733205
1.226551 -1.632390 0.819142
0.734363 -1.632390 0.733205
1.351551 -1.616765 0.694142
0.648426 -1.616765 0.694142
1.445301 -1.593327 0.733205
0.554676 -1.593327 0.733205
1.351551 -1.640202 0.819142
0.648426 -1.640202 0.819142
1.164051 -1.444890 -0.352733
0.999988 -1.390202 -0.407420
1.179676 -1.366765 -0.391795
0.835926 -1.444890 -0.352733
0.999988 -1.452702 -0.368358
1.234364 -1.444890 -0.337108
1.328114 -1.335515 -0.368358
0.765613 -1.444890 -0.337108
0.820301 -1.366765 -0.391795
1.367176 -1.343327 -0.313670
0.632801 -1.343327 -0.313670
0.671863 -1.335515 -0.368358
1.351551 -1.382390 -0.118358
1.265614 -1.476140 -0.243358
0.734363 -1.476140 -0.243358
0.648426 -1.382390 -0.118358
1.312489 -1.382390 0.139455
1.249989 -1.499577 -0.126170
0.749988 -1.499577 -0.126170
0.687488 -1.382390 0.139455
1.203114 -1.374577 0.389455
1.398426 -1.483952 0.530080
1.124989 -1.624577 0.475392
0.601551 -1.483952 0.530080
0.796863 -1.374577 0.389455
0.874988 -1.624577 0.475392
1.632801 -1.351140 0.537892
1.437489 -1.343327 0.436330
0.367176 -1.351140 0.537892
0.382801 -1.437077 0.631642
1.726551 -1.413640 0.780080
1.617176 -1.437077 0.631642
0.273426 -1.413640 0.780080
1.859364 -1.405827 1.006642
1.828114 -1.257390 0.725392
0.140613 -1.405827 1.006642
0.257801 -1.468327 0.951955
1.710926 -1.437077 1.061330
1.742176 -1.468327 0.951955
0.289051 -1.437077 1.061330
0.312488 -1.538640 0.991017
1.492176 -1.499577 1.178517
1.687489 -1.538640 0.991017
0.507801 -1.499577 1.178517
0.562488 -1.608952 1.123830
1.312489 -1.648015 1.217580
1.437489 -1.608952 1.123830
0.687488 -1.648015 1.217580
1.156239 -1.569890 1.295705
1.320301 -1.546452 1.334767
0.843738 -1.569890 1.295705
0.796863 -1.663640 1.194142
1.062489 -1.562077 1.069142
1.203114 -1.663640 1.194142
0.937488 -1.562077 1.069142
0.898426 -1.655827 1.006642
0.999988 -1.554265 1.006642
1.101551 -1.655827 1.006642
0.999988 -1.632390 0.928517
1.249989 -1.569890 1.045705
1.164051 -1.585515 0.991017
0.749988 -1.569890 1.045705
1.328114 -1.554265 1.053517
1.429676 -1.530827 1.014455
0.671863 -1.554265 1.053517
1.601551 -1.476140 0.951955
0.570301 -1.530827 1.014455
1.640614 -1.460515 0.873830
0.398426 -1.476140 0.951955
1.624989 -1.460515 0.764455
0.359363 -1.460515 0.873830
1.492176 -1.483952 0.639455
0.374988 -1.460515 0.764455
1.374989 -1.515202 0.592580
0.507801 -1.483952 0.639455
0.624988 -1.515202 0.592580
0.999988 -1.538640 0.623830
1.124989 -1.577702 0.881642
0.874988 -1.577702 0.881642
0.999988 -1.577702 0.787892
1.132801 -1.569890 0.787892
0.867176 -1.569890 0.787892
1.164051 -1.562077 0.717580
0.835926 -1.562077 0.717580
1.062489 -1.507390 -0.305858
0.937488 -1.507390 -0.305858
1.117176 -1.523015 -0.258983
0.882801 -1.523015 -0.258983
1.109364 -1.546452 -0.141795
1.210926 -1.523015 0.131642
1.117176 -1.546452 -0.110545
0.882801 -1.546452 -0.110545
0.789051 -1.523015 0.131642
0.890613 -1.546452 -0.141795
0.999988 -1.554265 0.248830
1.078114 -1.562077 0.131642
1.085926 -1.554265 0.287892
0.921863 -1.562077 0.131642
0.999988 -1.562077 0.131642
0.999988 -1.546452 -0.102733
0.999988 -1.546452 -0.188670
1.124989 -1.562077 0.350392
1.093739 -1.593327 0.303517
0.906238 -1.593327 0.303517
0.874988 -1.562077 0.350392
0.914051 -1.554265 0.287892
1.101551 -1.554265 0.428517
1.132801 -1.608952 0.350392
0.867176 -1.608952 0.350392
0.898426 -1.554265 0.428517
1.039051 -1.593327 0.451955
0.999988 -1.554265 0.436330
0.960926 -1.593327 0.451955
0.890613 -1.593327 0.444142
0.999988 -1.608952 0.389455
0.999988 -1.562077 0.381642
0.999988 -1.593327 0.256642
0.999988 -1.616765 0.287892
0.921863 -1.616765 0.326955
1.046864 -1.624577 0.428517
0.953113 -1.624577 0.428517
1.093739 -1.624577 0.420705
1.109364 -1.593327 0.444142
0.906238 -1.624577 0.420705
0.890613 -1.640202 0.350392
1.078114 -1.616765 0.326955
1.109364 -1.640202 0.350392
0.999988 -1.640202 0.373830
1.164051 -1.523015 0.334767
0.835926 -1.523015 0.334767
0.820301 -1.523015 0.264455
1.179676 -1.523015 0.264455
1.257801 -1.366765 0.264455
0.742176 -1.366765 0.264455
1.234364 -1.366765 0.326955
0.765613 -1.366765 0.326955
1.093739 -1.538640 -0.165233
0.906238 -1.538640 -0.165233
0.999988 -1.530827 -0.196483
1.093739 -1.523015 -0.243358
0.906238 -1.523015 -0.243358
1.046864 -1.499577 -0.290233
0.953113 -1.499577 -0.290233
0.999988 -1.499577 -0.313670
0.999988 -1.499577 -0.298045
0.999988 -1.444890 -0.282420
0.953113 -1.444890 -0.274608
1.093739 -1.452702 -0.235545
1.046864 -1.444890 -0.274608
0.906238 -1.452702 -0.235545
1.093739 -1.476140 -0.173045
0.906238 -1.476140 -0.173045
0.999988 -1.468327 -0.204295
1.187489 -1.585515 0.733205
1.171864 -1.593327 0.795705
0.812488 -1.585515 0.733205
0.828113 -1.593327 0.795705
1.179676 -1.593327 0.873830
0.820301 -1.593327 0.873830
1.210926 -1.593327 0.951955
0.789051 -1.593327 0.951955
0.773426 -1.593327 0.686330
1.374989 -1.554265 0.639455
1.226551 -1.593327 0.686330
0.624988 -1.554265 0.639455
1.476551 -1.530827 0.678517
0.523426 -1.530827 0.678517
1.578114 -1.491765 0.772267
0.421863 -1.491765 0.772267
1.585926 -1.499577 0.866017
0.414051 -1.499577 0.866017
0.437488 -1.507390 0.928517
1.562489 -1.507390 0.928517
0.578113 -1.585515 0.975392
1.335926 -1.569890 1.006642
1.421864 -1.585515 0.975392
0.664051 -1.569890 1.006642
1.273426 -1.585515 0.998830
0.726551 -1.585515 0.998830
1.281239 -1.577702 0.975392
0.718738 -1.577702 0.975392
0.765613 -1.569890 0.936330
1.335926 -1.562077 0.983205
0.664051 -1.562077 0.983205
1.414051 -1.562077 0.967580
0.585926 -1.562077 0.967580
1.531239 -1.491765 0.912892
0.468738 -1.491765 0.912892
1.554676 -1.483952 0.858205
0.445301 -1.483952 0.858205
1.546864 -1.483952 0.787892
0.453113 -1.483952 0.787892
1.460926 -1.515202 0.694142
0.539051 -1.515202 0.694142
1.374989 -1.538640 0.662892
0.624988 -1.538640 0.662892
1.242176 -1.569890 0.701955
0.757801 -1.569890 0.701955
1.203114 -1.562077 0.748830
0.796863 -1.562077 0.748830
1.195301 -1.569890 0.873830
1.234364 -1.569890 0.936330
0.804676 -1.569890 0.873830
1.195301 -1.562077 0.803517
0.804676 -1.562077 0.803517
1.109364 -1.421452 1.037892
0.999988 -1.413640 0.983205
0.890613 -1.421452 1.037892
1.195301 -1.429265 1.241017
0.804676 -1.429265 1.241017
0.679676 -1.546452 1.334767
0.664051 -1.405827 1.264455
1.335926 -1.405827 1.264455
0.515613 -1.366765 1.131642
1.484364 -1.366765 1.131642
0.320301 -1.304265 1.030080
1.796864 -1.273015 0.983205
1.679676 -1.304265 1.030080
0.203113 -1.273015 0.983205
0.171863 -1.257390 0.725392
0.226551 -1.187077 0.741017
1.601551 -1.226140 0.576955
1.773426 -1.187077 0.741017
0.398426 -1.226140 0.576955
1.437489 -1.280827 0.483205
0.562488 -1.280827 0.483205
0.999988 -1.093327 0.092580
1.124989 -1.171452 0.037892
0.999988 -1.132390 0.006642
0.874988 -1.171452 0.037892
0.820301 -1.069890 0.162892
1.140614 -1.179265 -0.180858
0.999988 -1.155827 -0.227733
0.859363 -1.179265 -0.180858
1.164051 -1.249577 -0.368358
0.999988 -1.273015 -0.399608
0.835926 -1.249577 -0.368358
1.328114 -1.210515 -0.337108
0.671863 -1.210515 -0.337108
1.289051 -1.194890 -0.133983
0.710926 -1.194890 -0.133983
1.249989 -1.202702 0.076955
0.749988 -1.202702 0.076955
1.179676 -1.069890 0.162892
1.234364 -1.218327 0.225392
0.765613 -1.218327 0.225392
1.218739 -1.241765 0.295705
0.781238 -1.241765 0.295705
0.789051 -1.280827 0.350392
1.203114 -1.312077 0.405080
0.796863 -1.312077 0.405080
0.562488 -1.343327 0.436330
1.335926 -0.148015 0.631642
0.999988 -0.140202 0.381642
0.999988 0.016048 0.647267
0.664051 -0.148015 0.631642
0.656238 -0.273015 0.428517
1.343739 -0.273015 0.428517
0.999988 -0.460515 0.194142
0.703113 -0.546452 0.264455
1.210926 -0.976140 0.186330
0.999988 -0.999577 0.116017
0.789051 -0.976140 0.186330
1.734364 -0.882390 0.530080
1.851551 -0.866765 0.811330
0.265613 -0.882390 0.530080
0.148426 -0.866765 0.811330
1.460926 -0.108952 1.014455
0.999988 0.039485 1.139455
0.539051 -0.108952 1.014455
1.453114 -1.046452 1.428517
0.999988 -0.733952 1.561330
0.999988 -1.101140 1.475392
0.546863 -1.046452 1.428517
0.546863 -0.741765 1.506642
1.453114 -0.429265 1.444142
0.999988 -0.265202 1.475392
0.546863 -0.429265 1.444142
1.726551 -1.148015 0.983205
1.632801 -1.093327 1.030080
0.273426 -1.148015 0.983205
0.367176 -1.093327 1.030080
1.796864 -0.937077 1.139455
1.640614 -0.866765 1.280080
0.203113 -0.937077 1.139455
0.359363 -0.866765 1.280080
1.796864 -0.694890 1.194142
1.640614 -0.616765 1.326955
0.203113 -0.694890 1.194142
0.359363 -0.616765 1.326955
1.796864 -0.452702 1.116017
1.640614 -0.366765 1.256642
0.203113 -0.452702 1.116017
0.359363 -0.366765 1.256642
1.617176 -0.226140 0.905080
1.773426 -0.374577 0.842580
0.382801 -0.226140 0.905080
1.453114 -0.741765 1.506642
1.460926 -1.241765 1.100392
0.539051 -1.241765 1.100392
0.999988 -1.382390 1.147267
1.859364 -0.765202 0.897267
0.140613 -0.765202 0.897267
1.820301 -0.608952 0.905080
0.179676 -0.608952 0.905080
1.296864 -0.546452 0.264455
1.406239 -0.960515 0.405080
0.593738 -0.960515 0.405080
0.570301 -0.601140 0.381642
1.593739 -0.648015 0.451955
0.406238 -0.648015 0.451955
1.210926 -1.280827 0.350392
1.640614 -0.382390 0.569142
0.359363 -0.382390 0.569142
0.515613 -0.265202 0.600392
1.429676 -0.601140 0.381642
1.484364 -0.265202 0.600392
1.890614 -0.577702 0.983205
2.015614 -0.523015 0.991017
2.023426 -0.499577 1.053517
0.109363 -0.577702 0.983205
-0.015637 -0.523015 0.991017
0.078113 -0.593327 0.936330
2.187489 -0.421452 1.014455
2.234364 -0.390202 1.084767
-0.187512 -0.421452 1.014455
-0.023449 -0.499577 1.053517
-0.234387 -0.390202 1.084767
2.351551 -0.390202 0.897267
-0.351574 -0.390202 0.897267
-0.265637 -0.405827 0.866017
2.265614 -0.405827 0.866017
2.281239 -0.382390 0.631642
-0.281262 -0.382390 0.631642
-0.210949 -0.405827 0.655080
2.210926 -0.405827 0.655080
2.039051 -0.483952 0.475392
-0.039074 -0.483952 0.475392
-0.031262 -0.507390 0.537892
1.828114 -0.679265 0.506642
1.773426 -0.687077 0.436330
0.171863 -0.679265 0.506642
0.226551 -0.687077 0.436330
2.031239 -0.507390 0.537892
1.882801 -0.601140 0.553517
0.117176 -0.601140 0.553517
2.039051 -0.444890 0.576955
-0.039074 -0.444890 0.576955
2.234364 -0.366765 0.826955
-0.234387 -0.366765 0.826955
-0.187512 -0.366765 0.670705
2.171864 -0.374577 0.936330
-0.171887 -0.374577 0.936330
2.023426 -0.452702 0.920705
-0.023449 -0.452702 0.920705
1.945301 -0.523015 0.881642
0.054676 -0.523015 0.881642
1.726551 -0.741765 0.576955
0.273426 -0.741765 0.576955
0.281238 -0.640202 0.553517
1.718739 -0.640202 0.553517
1.921864 -0.593327 0.936330
1.812489 -0.538640 0.561330
0.187488 -0.538640 0.561330
1.718739 -0.624577 0.616017
1.843739 -0.538640 0.592580
0.281238 -0.624577 0.616017
1.757801 -0.538640 0.670705
1.820301 -0.538640 0.662892
0.156238 -0.538640 0.592580
0.242176 -0.538640 0.670705
0.179676 -0.538640 0.662892
1.796864 -0.601140 0.780080
1.835926 -0.538640 0.748830
0.203113 -0.601140 0.780080
1.890614 -0.546452 0.819142
1.843739 -0.601140 0.866017
0.109363 -0.546452 0.819142
0.164051 -0.538640 0.748830
0.156238 -0.601140 0.866017
1.890614 -0.491765 0.811330
1.953114 -0.468327 0.866017
0.109363 -0.491765 0.811330
0.046863 -0.468327 0.866017
0.156238 -0.491765 0.748830
1.765614 -0.491765 0.670705
1.843739 -0.491765 0.748830
0.234363 -0.491765 0.670705
0.171863 -0.491765 0.655080
1.828114 -0.491765 0.655080
0.148426 -0.491765 0.592580
1.812489 -0.491765 0.561330
1.851551 -0.491765 0.592580
0.187488 -0.491765 0.561330
1.882801 -0.546452 0.561330
0.117176 -0.546452 0.561330
2.039051 -0.398015 0.905080
-0.039074 -0.398015 0.905080
2.187489 -0.327702 0.920705
-0.187512 -0.327702 0.920705
2.257801 -0.319890 0.819142
-0.257824 -0.319890 0.819142
2.210926 -0.327702 0.662892
2.187489 -0.366765 0.670705
-0.210949 -0.327702 0.662892
2.046864 -0.390202 0.576955
-0.046887 -0.390202 0.576955
1.890614 -0.483952 0.686330
0.109363 -0.483952 0.686330
0.062488 -0.476140 0.639455
1.937489 -0.476140 0.639455
1.960926 -0.460515 0.748830
0.039051 -0.460515 0.748830
-0.000012 -0.444890 0.701955
2.054676 -0.429265 0.764455
2.015614 -0.437077 0.811330
-0.054699 -0.429265 0.764455
-0.015637 -0.437077 0.811330
2.085926 -0.421452 0.850392
-0.085949 -0.421452 0.850392
-0.109387 -0.421452 0.787892
2.109364 -0.421452 0.787892
1.789051 -0.483952 0.451955
2.039051 -0.319890 0.491017
0.210926 -0.483952 0.451955
-0.039074 -0.319890 0.491017
2.312489 -0.280827 0.631642
-0.312512 -0.280827 0.631642
2.367176 -0.312077 0.873830
-0.367199 -0.312077 0.873830
2.249989 -0.265202 1.045705
-0.250012 -0.265202 1.045705
2.023426 -0.327702 1.014455
-0.023449 -0.327702 1.014455
1.859364 -0.429265 0.959767
0.140613 -0.429265 0.959767
0.226551 -0.374577 0.842580
0.835926 -1.585515 0.991017
1.999989 -0.444890 0.701955
3 0 1 2
3 3 4 5
3 2 6 7
3 8 5 9
3 1 10 6
3 11 3 8
3 12 13 1
3 14 15 3
3 16 17 13
3 18 19 14
3 13 20 10
3 21 14 11
3 22 20 17
3 23 21 24
3 25 22 17
3 23 26 18
3 27 28 22
3 29 30 23
3 28 31 22
3 29 24 32
3 33 34 28
3 35 32 36
3 37 28 38
3 39 29 35
3 40 33 37
3 41 35 42
3 43 44 33
3 42 36 45
3 2 46 43
3 5 45 9
3 0 43 40
3 4 42 5
3 40 47 0
3 41 48 49
3 37 50 40
3 39 49 51
3 38 52 37
3 53 51 54
3 27 55 38
3 30 54 56
3 27 57 58
3 59 30 56
3 25 60 57
3 61 26 59
3 16 62 60
3 63 19 61
3 12 47 62
3 48 15 63
3 64 62 47
3 48 63 65
3 60 62 64
3 65 63 61
3 64 57 60
3 61 59 65
3 64 58 57
3 59 56 65
3 64 55 58
3 56 54 65
3 64 52 55
3 54 51 65
3 64 50 52
3 51 49 65
3 64 47 50
3 49 48 65
3 66 67 68
3 69 67 70
3 71 68 72
3 73 74 69
3 75 71 72
3 73 76 77
3 78 79 75
3 80 81 76
3 82 83 78
3 84 85 81
3 86 87 88
3 89 90 91
3 92 87 93
3 94 89 95
3 92 96 97
3 98 94 95
3 99 96 100
3 101 98 102
3 103 104 99
3 105 102 106
3 107 108 103
3 109 106 110
3 107 111 112
3 113 109 110
3 114 111 115
3 116 113 117
3 118 119 114
3 120 117 121
3 122 123 118
3 122 121 124
3 125 123 126
3 127 121 117
3 125 111 119
3 113 127 117
3 112 128 129
3 110 130 113
3 108 129 131
3 106 132 110
3 104 131 133
3 102 134 106
3 96 133 135
3 98 136 102
3 97 135 137
3 95 138 98
3 87 137 139
3 89 140 95
3 88 139 17
3 91 141 89
3 17 142 88
3 142 18 91
3 123 143 126
3 121 144 124
3 143 145 146
3 145 144 147
3 148 145 142
3 149 145 147
3 150 70 66
3 70 151 69
3 152 66 71
3 69 153 73
3 152 79 154
3 153 80 73
3 155 156 83
3 157 158 84
3 154 83 156
3 84 159 157
3 160 161 162
3 160 163 164
3 161 165 156
3 163 165 164
3 154 165 166
3 159 165 157
3 167 168 162
3 169 170 171
3 172 173 167
3 174 175 170
3 176 172 177
3 178 175 179
3 180 177 181
3 180 177 178
3 162 182 160
3 171 182 169
3 168 183 182
3 169 183 184
3 180 185 176
3 186 180 178
3 176 187 188
3 189 178 179
3 187 173 188
3 189 174 190
3 173 191 168
3 184 174 169
3 192 185 193
3 190 186 189
3 193 191 192
3 184 193 190
3 177 88 142
3 91 177 142
3 172 194 88
3 195 175 91
3 162 194 167
3 171 195 196
3 161 197 162
3 163 196 158
3 198 155 82
3 199 158 196
3 200 197 198
3 201 196 195
3 86 194 200
3 195 90 201
3 166 202 154
3 166 203 204
3 152 202 205
3 203 153 206
3 150 205 207
3 206 151 208
3 209 207 210
3 208 209 210
3 207 211 210
3 208 211 212
3 207 213 214
3 215 208 212
3 205 216 213
3 217 206 215
3 204 216 202
3 204 217 218
3 218 214 216
3 212 218 217
3 216 214 213
3 215 212 217
3 146 219 220
3 221 147 222
3 143 220 223
3 222 144 224
3 143 225 126
3 144 226 224
3 17 219 148
3 18 221 227
3 17 228 229
3 230 18 227
3 139 231 228
3 232 141 230
3 137 233 231
3 234 140 232
3 135 235 233
3 236 138 234
3 131 235 133
3 134 236 237
3 129 238 131
3 132 237 239
3 129 240 241
3 242 132 239
3 128 243 240
3 244 130 242
3 125 225 243
3 226 127 244
3 225 245 243
3 226 246 247
3 240 245 248
3 246 242 249
3 240 250 241
3 242 251 249
3 241 252 238
3 239 253 251
3 235 252 254
3 253 236 255
3 235 256 233
3 236 257 255
3 231 256 258
3 257 232 259
3 231 260 228
3 232 261 259
3 228 262 229
3 230 263 261
3 219 262 264
3 263 221 265
3 225 266 267
3 268 226 247
3 223 269 266
3 270 224 268
3 220 264 269
3 265 222 270
3 122 271 272
3 273 122 272
3 118 274 271
3 275 120 273
3 115 274 114
3 276 275 277
3 107 278 115
3 109 277 279
3 103 280 107
3 105 279 281
3 103 282 283
3 284 105 281
3 100 282 99
3 285 284 286
3 100 287 288
3 289 285 286
3 92 290 287
3 291 94 289
3 292 293 294
3 292 295 296
3 294 297 298
3 294 299 295
3 298 300 301
3 298 302 299
3 68 301 300
3 301 74 302
3 72 300 303
3 302 77 304
3 75 303 305
3 304 76 306
3 78 305 307
3 306 81 308
3 305 293 307
3 295 306 308
3 303 297 305
3 304 299 302
3 307 309 310
3 308 296 295
3 82 307 310
3 308 85 311
3 312 200 198
3 313 201 314
3 310 198 82
3 311 199 313
3 200 315 86
3 201 316 314
3 315 93 86
3 316 317 291
3 318 319 320
3 321 319 322
3 323 324 319
3 322 324 325
3 324 326 327
3 328 324 327
3 327 309 292
3 296 327 292
3 309 312 310
3 296 313 328
3 288 329 330
3 331 286 332
3 333 320 334
3 335 320 321
3 336 337 338
3 339 337 340
3 337 341 342
3 343 337 342
3 342 333 334
3 335 342 334
3 283 344 345
3 346 281 347
3 345 348 349
3 350 347 351
3 349 352 353
3 354 351 355
3 353 356 357
3 358 355 359
3 360 356 361
3 362 358 359
3 333 357 360
3 359 335 362
3 341 353 357
3 355 343 359
3 363 349 353
3 351 340 355
3 336 345 349
3 347 339 351
3 283 364 280
3 281 365 347
3 364 338 366
3 365 338 339
3 271 278 280
3 277 273 279
3 271 364 366
3 365 273 366
3 272 271 366
3 366 273 272
3 288 344 282
3 286 346 332
3 330 348 344
3 350 332 346
3 367 352 348
3 354 368 350
3 356 369 361
3 358 370 354
3 371 372 326
3 325 373 374
3 372 375 329
3 373 376 374
3 287 372 329
3 373 289 331
3 290 312 372
3 313 291 373
3 312 326 372
3 373 328 313
3 290 315 377
3 314 316 291
3 378 360 361
3 379 362 380
3 360 318 333
3 362 321 380
3 381 378 375
3 374 379 380
3 323 381 371
3 322 374 380
3 318 382 323
3 322 380 321
3 383 384 385
3 386 387 388
3 385 389 390
3 391 392 393
3 389 394 390
3 391 395 396
3 397 398 394
3 396 399 400
3 401 402 398
3 400 403 404
3 402 405 406
3 407 403 408
3 409 410 405
3 411 404 407
3 401 412 409
3 413 400 404
3 414 401 397
3 415 400 416
3 417 397 389
3 418 396 415
3 419 389 384
3 420 391 418
3 384 421 419
3 422 387 420
3 375 423 329
3 376 424 425
3 406 426 375
3 408 425 407
3 330 423 367
3 424 332 368
3 369 427 383
3 388 370 386
3 405 428 426
3 429 407 425
3 430 428 431
3 432 429 425
3 433 431 434
3 435 436 437
3 438 433 439
3 440 436 432
3 438 441 442
3 440 443 444
3 442 421 427
3 445 422 443
3 367 442 369
3 445 368 370
3 423 438 367
3 424 440 432
3 423 426 430
3 432 425 424
3 421 446 447
3 448 422 449
3 439 446 441
3 444 448 450
3 439 451 452
3 453 444 450
3 434 451 433
3 437 453 454
3 431 455 434
3 435 454 456
3 431 457 458
3 459 435 456
3 428 460 457
3 461 429 459
3 419 447 462
3 449 420 463
3 417 462 464
3 463 418 465
3 414 464 466
3 465 415 467
3 414 468 469
3 415 470 467
3 469 471 412
3 416 472 470
3 412 460 410
3 413 461 472
3 458 473 455
3 456 474 475
3 476 477 473
3 475 478 479
3 477 480 481
3 482 478 483
3 480 484 481
3 482 485 486
3 462 481 484
3 483 463 485
3 477 447 446
3 478 449 483
3 452 477 446
3 450 478 474
3 455 452 451
3 450 454 453
3 460 458 457
3 461 456 475
3 471 476 460
3 475 472 461
3 480 471 468
3 482 472 479
3 487 468 466
3 486 470 482
3 464 487 466
3 486 465 467
3 462 484 464
3 465 485 463
3 402 488 489
3 490 403 491
3 398 489 492
3 491 399 493
3 398 494 394
3 399 495 493
3 394 496 390
3 395 497 495
3 390 498 385
3 393 499 497
3 385 500 383
3 392 501 499
3 489 500 498
3 491 501 490
3 498 492 489
3 493 499 491
3 496 494 492
3 493 495 497
3 369 500 361
3 370 501 386
3 361 488 378
3 490 502 379
3 375 488 406
3 490 376 408
3 0 12 1
3 3 15 4
3 2 1 6
3 8 3 5
3 1 13 10
3 11 14 3
3 12 16 13
3 14 19 15
3 16 25 17
3 18 26 19
3 13 17 20
3 21 18 14
3 22 31 20
3 23 18 21
3 25 27 22
3 23 30 26
3 27 38 28
3 29 53 30
3 28 34 31
3 29 23 24
3 33 44 34
3 35 29 32
3 37 33 28
3 39 53 29
3 40 43 33
3 41 39 35
3 43 46 44
3 42 35 36
3 2 7 46
3 5 42 45
3 0 2 43
3 4 41 42
3 40 50 47
3 41 4 48
3 37 52 50
3 39 41 49
3 38 55 52
3 53 39 51
3 27 58 55
3 30 53 54
3 27 25 57
3 59 26 30
3 25 16 60
3 61 19 26
3 16 12 62
3 63 15 19
3 12 0 47
3 48 4 15
3 66 70 67
3 69 74 67
3 71 66 68
3 73 77 74
3 75 79 71
3 73 80 76
3 78 83 79
3 80 84 81
3 82 155 83
3 84 158 85
3 86 93 87
3 89 317 90
3 92 97 87
3 94 317 89
3 92 100 96
3 98 285 94
3 99 104 96
3 101 285 98
3 103 108 104
3 105 101 102
3 107 112 108
3 109 105 106
3 107 115 111
3 113 276 109
3 114 119 111
3 116 276 113
3 118 123 119
3 120 116 117
3 122 124 123
3 122 120 121
3 125 119 123
3 127 503 121
3 125 128 111
3 113 130 127
3 112 111 128
3 110 132 130
3 108 112 129
3 106 134 132
3 104 108 131
3 102 136 134
3 96 104 133
3 98 138 136
3 97 96 135
3 95 140 138
3 87 97 137
3 89 141 140
3 88 87 139
3 91 18 141
3 17 148 142
3 142 149 18
3 123 124 143
3 121 503 144
3 143 124 145
3 145 124 144
3 148 146 145
3 149 142 145
3 150 209 70
3 70 209 151
3 152 150 66
3 69 151 153
3 152 71 79
3 153 159 80
3 155 161 156
3 157 163 158
3 154 79 83
3 84 80 159
3 160 164 161
3 160 171 163
3 161 164 165
3 163 157 165
3 154 156 165
3 159 166 165
3 167 173 168
3 169 174 170
3 172 188 173
3 174 179 175
3 176 188 172
3 178 177 175
3 180 176 177
3 162 168 182
3 171 160 182
3 168 191 183
3 169 182 183
3 180 193 185
3 186 193 180
3 176 185 187
3 189 186 178
3 187 192 173
3 189 179 174
3 173 192 191
3 184 190 174
3 192 187 185
3 190 193 186
3 193 183 191
3 184 183 193
3 177 172 88
3 91 175 177
3 172 167 194
3 195 170 175
3 162 197 194
3 171 170 195
3 161 155 197
3 163 171 196
3 198 197 155
3 199 85 158
3 200 194 197
3 201 199 196
3 86 88 194
3 195 91 90
3 166 204 202
3 166 159 203
3 152 154 202
3 203 159 153
3 150 152 205
3 206 153 151
3 209 150 207
3 208 151 209
3 207 214 211
3 208 210 211
3 207 205 213
3 215 206 208
3 205 202 216
3 217 203 206
3 204 218 216
3 204 203 217
3 218 211 214
3 212 211 218
3 146 148 219
3 221 149 147
3 143 146 220
3 222 147 144
3 143 223 225
3 144 503 226
3 17 229 219
3 18 149 221
3 17 139 228
3 230 141 18
3 139 137 231
3 232 140 141
3 137 135 233
3 234 138 140
3 135 133 235
3 236 136 138
3 131 238 235
3 134 136 236
3 129 241 238
3 132 134 237
3 129 128 240
3 242 130 132
3 128 125 243
3 244 127 130
3 125 126 225
3 226 503 127
3 225 267 245
3 226 244 246
3 240 243 245
3 246 244 242
3 240 248 250
3 242 239 251
3 241 250 252
3 239 237 253
3 235 238 252
3 253 237 236
3 235 254 256
3 236 234 257
3 231 233 256
3 257 234 232
3 231 258 260
3 232 230 261
3 228 260 262
3 230 227 263
3 219 229 262
3 263 227 221
3 225 223 266
3 268 224 226
3 223 220 269
3 270 222 224
3 220 219 264
3 265 221 222
3 122 118 271
3 273 120 122
3 118 114 274
3 275 116 120
3 115 278 274
3 276 116 275
3 107 280 278
3 109 276 277
3 103 283 280
3 105 109 279
3 103 99 282
3 284 101 105
3 100 288 282
3 285 101 284
3 100 92 287
3 289 94 285
3 92 93 290
3 291 317 94
3 292 309 293
3 292 294 295
3 294 293 297
3 294 298 299
3 298 297 300
3 298 301 302
3 68 67 301
3 301 67 74
3 72 68 300
3 302 74 77
3 75 72 303
3 304 77 76
3 78 75 305
3 306 76 81
3 305 297 293
3 295 299 306
3 303 300 297
3 304 306 299
3 307 293 309
3 308 311 296
3 82 78 307
3 308 81 85
3 312 377 200
3 313 199 201
3 310 312 198
3 311 85 199
3 200 377 315
3 201 90 316
3 315 290 93
3 316 90 317
3 318 323 319
3 321 320 319
3 323 371 324
3 322 319 324
3 324 371 326
3 328 325 324
3 327 326 309
3 296 328 327
3 309 326 312
3 296 311 313
3 288 287 329
3 331 289 286
3 333 318 320
3 335 334 320
3 336 363 337
3 339 338 337
3 337 363 341
3 343 340 337
3 342 341 333
3 335 343 342
3 283 282 344
3 346 284 281
3 345 344 348
3 350 346 347
3 349 348 352
3 354 350 351
3 353 352 356
3 358 354 355
3 360 357 356
3 362 502 358
3 333 341 357
3 359 343 335
3 341 363 353
3 355 340 343
3 363 336 349
3 351 339 340
3 336 364 345
3 347 365 339
3 283 345 364
3 281 279 365
3 364 336 338
3 365 366 338
3 271 274 278
3 277 275 273
3 271 280 364
3 365 279 273
3 288 330 344
3 286 284 346
3 330 367 348
3 350 368 332
3 367 369 352
3 354 370 368
3 356 352 369
3 358 502 370
3 371 381 372
3 325 328 373
3 372 381 375
3 373 331 376
3 287 290 372
3 373 291 289
3 290 377 312
3 313 314 291
3 378 382 360
3 379 502 362
3 360 382 318
3 362 335 321
3 381 382 378
3 374 376 379
3 323 382 381
3 322 325 374
3 383 427 384
3 386 392 387
3 385 384 389
3 391 387 392
3 389 397 394
3 391 393 395
3 397 401 398
3 396 395 399
3 401 409 402
3 400 399 403
3 402 409 405
3 407 404 403
3 409 412 410
3 411 413 404
3 401 469 412
3 413 416 400
3 414 469 401
3 415 396 400
3 417 414 397
3 418 391 396
3 419 417 389
3 420 387 391
3 384 427 421
3 422 388 387
3 375 426 423
3 376 331 424
3 406 405 426
3 408 376 425
3 330 329 423
3 424 331 332
3 369 442 427
3 388 445 370
3 405 410 428
3 429 411 407
3 430 426 428
3 432 435 429
3 433 430 431
3 435 432 436
3 438 430 433
3 440 444 436
3 438 439 441
3 440 445 443
3 442 441 421
3 445 388 422
3 367 438 442
3 445 440 368
3 423 430 438
3 424 368 440
3 421 441 446
3 448 443 422
3 439 452 446
3 444 443 448
3 439 433 451
3 453 436 444
3 434 455 451
3 437 436 453
3 431 458 455
3 435 437 454
3 431 428 457
3 459 429 435
3 428 410 460
3 461 411 429
3 419 421 447
3 449 422 420
3 417 419 462
3 463 420 418
3 414 417 464
3 465 418 415
3 414 466 468
3 415 416 470
3 469 468 471
3 416 413 472
3 412 471 460
3 413 411 461
3 458 476 473
3 456 454 474
3 476 504 477
3 475 474 478
3 477 504 480
3 482 479 478
3 480 487 484
3 482 483 485
3 462 447 481
3 483 449 463
3 477 481 447
3 478 448 449
3 452 473 477
3 450 448 478
3 455 473 452
3 450 474 454
3 460 476 458
3 461 459 456
3 471 504 476
3 475 479 472
3 480 504 471
3 482 470 472
3 487 480 468
3 486 467 470
3 464 484 487
3 486 485 465
3 402 406 488
3 490 408 403
3 398 402 489
3 491 403 399
3 398 492 494
3 399 395 495
3 394 494 496
3 395 393 497
3 390 496 498
3 393 392 499
3 385 498 500
3 392 386 501
3 489 488 500
3 491 499 501
3 498 496 492
3 493 497 499
3 369 383 500
3 370 502 501
3 361 500 488
3 490 501 502
3 375 378 488
3 490 379 376
