ply
format ascii 1.0
element vertex 10
property float x
property float y
property float z
element face 20
property list uchar uint vertex_indices
end_header
1.35799404758 0.00206309722523 -0.242131025994
1.0198107055 0.745304614551 0.254699039459
0.733452799916 -0.316369881413 0.0856445978738
0.241669299841 0.771198552798 -0.00221022439167
-0.123218403144 1.27903309243 -0.226435012623
-1.49988887315 0.168602897927 0.196614920816
-0.760284134983 -0.350176851809 0.0124744273474
-1.26007018357 0.235542827847 -0.215887204029
0.0493036466533 -1.27242700064 0.277650113128
0.120705227698 -1.07095125549 -0.261348943458
3 0 1 4
3 0 1 8
3 0 2 3
3 0 2 9
3 0 3 4
3 0 8 9
3 1 2 3
3 1 2 8
3 1 3 5
3 1 4 5
3 2 6 8
3 2 6 9
3 3 4 7
3 3 5 6
3 3 6 7
3 4 5 7
3 5 6 8
3 5 7 9
3 5 8 9
3 6 7 9
