ply
format ascii 1.0
comment Created by Blender 2.76 (sub 0) - www.blender.org, source file: 'torus_around_cone.blend'
element vertex 128
property float x
property float y
property float z
property float nx
property float ny
property float nz
element face 62
property list uchar uint vertex_indices
end_header
-0.374344 0.784943 0.018495 -0.259887 0.856737 0.445488
0.008338 -0.138937 2.018495 -0.259887 0.856737 0.445488
-0.186751 0.841848 0.018495 -0.259887 0.856737 0.445488
0.008338 0.861063 0.018495 0.087754 0.890977 0.445488
0.008338 -0.138937 2.018495 0.087754 0.890977 0.445488
0.203429 0.841848 0.018495 0.087754 0.890977 0.445488
-0.547231 0.692533 0.018495 -0.422035 0.789574 0.445488
0.008338 -0.138937 2.018495 -0.422035 0.789574 0.445488
-0.374344 0.784943 0.018495 -0.422035 0.789574 0.445488
-0.698768 0.568171 0.018495 -0.567964 0.692067 0.445488
0.008338 -0.138937 2.018495 -0.567964 0.692067 0.445488
-0.547231 0.692533 0.018495 -0.567964 0.692067 0.445488
-0.823131 0.416634 0.018495 -0.692066 0.567965 0.445488
0.008338 -0.138937 2.018495 -0.692066 0.567965 0.445488
-0.698768 0.568171 0.018495 -0.692066 0.567965 0.445488
-0.915541 0.243747 0.018495 -0.789573 0.422037 0.445488
0.008338 -0.138937 2.018495 -0.789573 0.422037 0.445488
-0.823131 0.416634 0.018495 -0.789573 0.422037 0.445488
-0.972447 0.056154 0.018495 -0.856737 0.259889 0.445488
0.008338 -0.138937 2.018495 -0.856737 0.259889 0.445488
-0.915541 0.243747 0.018495 -0.856737 0.259889 0.445488
-0.991662 -0.138936 0.018495 -0.890977 0.087754 0.445488
0.008338 -0.138937 2.018495 -0.890977 0.087754 0.445488
-0.972447 0.056154 0.018495 -0.890977 0.087754 0.445488
-0.972447 -0.334027 0.018495 -0.890977 -0.087753 0.445488
0.008338 -0.138937 2.018495 -0.890977 -0.087753 0.445488
-0.991662 -0.138936 0.018495 -0.890977 -0.087753 0.445488
-0.915542 -0.521620 0.018495 -0.856737 -0.259887 0.445488
0.008338 -0.138937 2.018495 -0.856737 -0.259887 0.445488
-0.972447 -0.334027 0.018495 -0.856737 -0.259887 0.445488
-0.823132 -0.694507 0.018495 -0.789574 -0.422035 0.445488
0.008338 -0.138937 2.018495 -0.789574 -0.422035 0.445488
-0.915542 -0.521620 0.018495 -0.789574 -0.422035 0.445488
-0.698769 -0.846043 0.018495 -0.692067 -0.567964 0.445488
0.008338 -0.138937 2.018495 -0.692067 -0.567964 0.445488
-0.823132 -0.694507 0.018495 -0.692067 -0.567964 0.445488
-0.547233 -0.970406 0.018495 -0.567965 -0.692066 0.445488
0.008338 -0.138937 2.018495 -0.567965 -0.692066 0.445488
-0.698769 -0.846043 0.018495 -0.567965 -0.692066 0.445488
-0.374346 -1.062816 0.018495 -0.422036 -0.789573 0.445488
0.008338 -0.138937 2.018495 -0.422036 -0.789573 0.445488
-0.547233 -0.970406 0.018495 -0.422036 -0.789573 0.445488
-0.186752 -1.119722 0.018495 -0.259889 -0.856737 0.445488
0.008338 -0.138937 2.018495 -0.259889 -0.856737 0.445488
-0.374346 -1.062816 0.018495 -0.259889 -0.856737 0.445488
0.008338 -1.138937 0.018495 -0.087754 -0.890977 0.445488
0.008338 -0.138937 2.018495 -0.087754 -0.890977 0.445488
-0.186752 -1.119722 0.018495 -0.087754 -0.890977 0.445488
0.203428 -1.119722 0.018495 0.087754 -0.890977 0.445488
0.008338 -0.138937 2.018495 0.087754 -0.890977 0.445488
0.008338 -1.138937 0.018495 0.087754 -0.890977 0.445488
0.391021 -1.062817 0.018495 0.259888 -0.856737 0.445488
0.008338 -0.138937 2.018495 0.259888 -0.856737 0.445488
0.203428 -1.119722 0.018495 0.259888 -0.856737 0.445488
0.563908 -0.970407 0.018495 0.422036 -0.789573 0.445488
0.008338 -0.138937 2.018495 0.422036 -0.789573 0.445488
0.391021 -1.062817 0.018495 0.422036 -0.789573 0.445488
0.715445 -0.846044 0.018495 0.567965 -0.692067 0.445488
0.008338 -0.138937 2.018495 0.567965 -0.692067 0.445488
0.563908 -0.970407 0.018495 0.567965 -0.692067 0.445488
0.839808 -0.694507 0.018495 0.692067 -0.567965 0.445488
0.008338 -0.138937 2.018495 0.692067 -0.567965 0.445488
0.715445 -0.846044 0.018495 0.692067 -0.567965 0.445488
0.932218 -0.521620 0.018495 0.789573 -0.422036 0.445488
0.008338 -0.138937 2.018495 0.789573 -0.422036 0.445488
0.839808 -0.694507 0.018495 0.789573 -0.422036 0.445488
0.989124 -0.334027 0.018495 0.856737 -0.259888 0.445488
0.008338 -0.138937 2.018495 0.856737 -0.259888 0.445488
0.932218 -0.521620 0.018495 0.856737 -0.259888 0.445488
1.008338 -0.138937 0.018495 0.890977 -0.087753 0.445488
0.008338 -0.138937 2.018495 0.890977 -0.087753 0.445488
0.989124 -0.334027 0.018495 0.890977 -0.087753 0.445488
0.989123 0.056153 0.018495 0.890977 0.087754 0.445488
0.008338 -0.138937 2.018495 0.890977 0.087754 0.445488
1.008338 -0.138937 0.018495 0.890977 0.087754 0.445488
0.932218 0.243746 0.018495 0.856737 0.259888 0.445488
0.008338 -0.138937 2.018495 0.856737 0.259888 0.445488
0.989123 0.056153 0.018495 0.856737 0.259888 0.445488
0.839808 0.416633 0.018495 0.789573 0.422036 0.445488
0.008338 -0.138937 2.018495 0.789573 0.422036 0.445488
0.932218 0.243746 0.018495 0.789573 0.422036 0.445488
0.715445 0.568170 0.018495 0.692067 0.567965 0.445488
0.008338 -0.138937 2.018495 0.692067 0.567965 0.445488
0.839808 0.416633 0.018495 0.692067 0.567965 0.445488
0.563908 0.692532 0.018495 0.567965 0.692067 0.445488
0.008338 -0.138937 2.018495 0.567965 0.692067 0.445488
0.715445 0.568170 0.018495 0.567965 0.692067 0.445488
0.391022 0.784942 0.018495 0.422036 0.789573 0.445488
0.008338 -0.138937 2.018495 0.422036 0.789573 0.445488
0.563908 0.692532 0.018495 0.422036 0.789573 0.445488
-0.186751 0.841848 0.018495 -0.087753 0.890977 0.445488
0.008338 -0.138937 2.018495 -0.087753 0.890977 0.445488
0.008338 0.861063 0.018495 -0.087753 0.890977 0.445488
0.203429 0.841848 0.018495 0.259888 0.856737 0.445488
0.008338 -0.138937 2.018495 0.259888 0.856737 0.445488
0.391022 0.784942 0.018495 0.259888 0.856737 0.445488
0.203428 -1.119722 0.018495 0.000000 -0.000000 -1.000000
-0.972447 -0.334027 0.018495 0.000000 -0.000000 -1.000000
0.989123 0.056153 0.018495 0.000000 -0.000000 -1.000000
-0.186751 0.841848 0.018495 -0.000000 0.000000 -1.000000
0.008338 0.861063 0.018495 -0.000000 0.000000 -1.000000
0.203429 0.841848 0.018495 -0.000000 0.000000 -1.000000
0.391022 0.784942 0.018495 0.000000 0.000000 -1.000000
0.563908 0.692532 0.018495 0.000000 0.000000 -1.000000
0.715445 0.568170 0.018495 0.000000 0.000000 -1.000000
0.839808 0.416633 0.018495 0.000000 0.000000 -1.000000
0.932218 0.243746 0.018495 0.000000 0.000000 -1.000000
1.008338 -0.138937 0.018495 0.000000 0.000000 -1.000000
0.989124 -0.334027 0.018495 0.000000 0.000000 -1.000000
0.932218 -0.521620 0.018495 0.000000 -0.000000 -1.000000
0.839808 -0.694507 0.018495 0.000000 0.000000 -1.000000
0.715445 -0.846044 0.018495 0.000000 0.000000 -1.000000
0.563908 -0.970407 0.018495 0.000000 0.000000 -1.000000
0.391021 -1.062817 0.018495 0.000000 0.000000 -1.000000
0.008338 -1.138937 0.018495 0.000000 0.000000 -1.000000
-0.186752 -1.119722 0.018495 0.000000 0.000000 -1.000000
-0.374346 -1.062816 0.018495 0.000000 0.000000 -1.000000
-0.547233 -0.970406 0.018495 0.000000 0.000000 -1.000000
-0.698769 -0.846043 0.018495 0.000000 0.000000 -1.000000
-0.823132 -0.694507 0.018495 0.000000 0.000000 -1.000000
-0.915542 -0.521620 0.018495 0.000000 0.000000 -1.000000
-0.991662 -0.138936 0.018495 0.000000 -0.000000 -1.000000
-0.972447 0.056154 0.018495 0.000000 -0.000000 -1.000000
-0.915541 0.243747 0.018495 0.000000 0.000000 -1.000000
-0.823131 0.416634 0.018495 0.000000 0.000000 -1.000000
-0.698768 0.568171 0.018495 0.000000 0.000000 -1.000000
-0.547231 0.692533 0.018495 0.000000 0.000000 -1.000000
-0.374344 0.784943 0.018495 0.000000 0.000000 -1.000000
3 0 1 2
3 3 4 5
3 6 7 8
3 9 10 11
3 12 13 14
3 15 16 17
3 18 19 20
3 21 22 23
3 24 25 26
3 27 28 29
3 30 31 32
3 33 34 35
3 36 37 38
3 39 40 41
3 42 43 44
3 45 46 47
3 48 49 50
3 51 52 53
3 54 55 56
3 57 58 59
3 60 61 62
3 63 64 65
3 66 67 68
3 69 70 71
3 72 73 74
3 75 76 77
3 78 79 80
3 81 82 83
3 84 85 86
3 87 88 89
3 90 91 92
3 93 94 95
3 96 97 98
3 99 100 101
3 101 102 103
3 103 104 105
3 105 106 103
3 98 107 108
3 108 109 98
3 110 111 96
3 112 113 96
3 96 114 115
3 115 116 117
3 117 118 119
3 119 120 97
3 97 121 122
3 122 123 124
3 124 125 99
3 126 127 99
3 99 101 98
3 103 106 98
3 98 109 110
3 111 112 96
3 96 115 97
3 117 119 97
3 97 122 99
3 125 126 99
3 101 103 98
3 98 110 96
3 115 117 97
3 122 124 99
3 99 98 97
