ply
format ascii 1.0
element vertex 14
property float x
property float y
property float z
element face 29
property list uchar uint vertex_indices
end_header
7.06431014314 62.353753857 -1.64687638979
500.0 0.0 0.0
466.666666667 233.333333333 -0.0
0.0 300.0 0.0
20.1388129084 204.276049459 1.47207242539
382.909388161 91.2718355161 -0.373180743874
200.0 240.0 0.0
-10.709557008 14.6506269904 499.884972316
500.0 -0.0 500.0
500.0 300.0 500.0
22.4700334794 237.103854611 500.670022795
400.0 200.0 500.0
381.052631579 96.8421052632 500.0
200.0 240.0 500.0
3 0 1 5
3 0 1 7
3 0 5 6
3 0 5 13
3 0 6 13
3 0 7 13
3 1 2 5
3 1 2 8
3 1 7 8
3 2 3 9
3 2 3 10
3 2 3 4
3 2 4 10
3 2 5 11
3 2 8 9
3 2 8 11
3 2 9 10
3 2 9 11
3 2 10 11
3 3 4 10
3 3 9 10
3 5 6 13
3 5 11 12
3 5 12 13
3 7 8 12
3 7 12 13
3 8 9 11
3 8 11 12
3 9 10 11
