ply
format ascii 1.0
element vertex 84
property float x
property float y
property float z
element face 164
property list uchar uint vertex_indices
end_header
0.0 0.0 0.0
500.0 0.0 0.0
500.0 300.0 0.0
0.0 300.0 0.0
0.0 200.0 0.0
100.0 200.0 0.0
200.0 250.0 0.0
300.0 200.0 0.0
400.0 200.0 0.0
400.0 100.0 0.0
340.0 100.0 0.0
200.0 240.0 0.0
60.0 100.0 0.0
0.0 100.0 0.0
0.0 0.0 100.0
500.0 0.0 100.0
500.0 300.0 100.0
0.0 300.0 100.0
0.0 200.0 100.0
100.0 200.0 100.0
200.0 250.0 100.0
300.0 200.0 100.0
400.0 200.0 100.0
400.0 100.0 100.0
340.0 100.0 100.0
200.0 240.0 100.0
60.0 100.0 100.0
0.0 100.0 100.0
0.0 0.0 200.0
500.0 0.0 200.0
500.0 300.0 200.0
0.0 300.0 200.0
0.0 200.0 200.0
100.0 200.0 200.0
200.0 250.0 200.0
300.0 200.0 200.0
400.0 200.0 200.0
400.0 100.0 200.0
340.0 100.0 200.0
200.0 240.0 200.0
60.0 100.0 200.0
0.0 100.0 200.0
0.0 0.0 300.0
500.0 0.0 300.0
500.0 300.0 300.0
0.0 300.0 300.0
0.0 200.0 300.0
100.0 200.0 300.0
200.0 250.0 300.0
300.0 200.0 300.0
400.0 200.0 300.0
400.0 100.0 300.0
340.0 100.0 300.0
200.0 240.0 300.0
60.0 100.0 300.0
0.0 100.0 300.0
0.0 0.0 400.0
500.0 0.0 400.0
500.0 300.0 400.0
0.0 300.0 400.0
0.0 200.0 400.0
100.0 200.0 400.0
200.0 250.0 400.0
300.0 200.0 400.0
400.0 200.0 400.0
400.0 100.0 400.0
340.0 100.0 400.0
200.0 240.0 400.0
60.0 100.0 400.0
0.0 100.0 400.0
0.0 0.0 500.0
500.0 0.0 500.0
500.0 300.0 500.0
0.0 300.0 500.0
0.0 200.0 500.0
100.0 200.0 500.0
200.0 250.0 500.0
300.0 200.0 500.0
400.0 200.0 500.0
400.0 100.0 500.0
340.0 100.0 500.0
200.0 240.0 500.0
60.0 100.0 500.0
0.0 100.0 500.0
3 0 1 10
3 0 1 14
3 0 10 12
3 0 12 13
3 0 13 27
3 0 14 27
3 1 2 8
3 1 2 15
3 1 8 9
3 1 9 10
3 1 14 15
3 2 3 16
3 2 3 6
3 2 6 7
3 2 7 8
3 2 15 16
3 3 4 17
3 3 4 5
3 3 5 6
3 3 16 17
3 4 17 18
3 4 5 18
3 5 18 19
3 5 6 19
3 6 7 20
3 6 19 20
3 7 8 21
3 7 20 21
3 8 9 22
3 8 21 22
3 9 10 23
3 9 22 23
3 10 11 24
3 10 11 12
3 10 23 24
3 11 24 25
3 11 12 25
3 12 13 26
3 12 25 26
3 13 26 27
3 14 15 28
3 14 27 41
3 14 28 41
3 15 16 29
3 15 28 29
3 16 17 30
3 16 29 30
3 17 18 31
3 17 30 31
3 18 19 32
3 18 31 32
3 19 32 33
3 19 20 33
3 20 33 34
3 20 21 34
3 21 34 35
3 21 22 35
3 22 35 36
3 22 23 36
3 23 36 37
3 23 24 37
3 24 37 38
3 24 25 38
3 25 38 39
3 25 26 39
3 26 39 40
3 26 27 40
3 27 40 41
3 28 41 55
3 28 42 55
3 28 29 42
3 29 42 43
3 29 30 43
3 30 43 44
3 30 31 44
3 31 32 45
3 31 44 45
3 32 33 46
3 32 45 46
3 33 34 47
3 33 46 47
3 34 35 48
3 34 47 48
3 35 36 49
3 35 48 49
3 36 37 50
3 36 49 50
3 37 38 51
3 37 50 51
3 38 39 52
3 38 51 52
3 39 40 53
3 39 52 53
3 40 41 54
3 40 53 54
3 41 54 55
3 42 43 56
3 42 55 69
3 42 56 69
3 43 44 57
3 43 56 57
3 44 45 58
3 44 57 58
3 45 46 59
3 45 58 59
3 46 47 60
3 46 59 60
3 47 48 61
3 47 60 61
3 48 49 62
3 48 61 62
3 49 50 63
3 49 62 63
3 50 51 64
3 50 63 64
3 51 64 65
3 51 52 65
3 52 65 66
3 52 53 66
3 53 66 67
3 53 54 67
3 54 67 68
3 54 55 68
3 55 68 69
3 56 69 83
3 56 70 83
3 56 57 70
3 57 70 71
3 57 58 71
3 58 71 72
3 58 59 72
3 59 72 73
3 59 60 73
3 60 73 74
3 60 61 74
3 61 74 75
3 61 62 75
3 62 75 76
3 62 63 76
3 63 64 77
3 63 76 77
3 64 65 78
3 64 77 78
3 65 66 79
3 65 78 79
3 66 67 80
3 66 79 80
3 67 68 81
3 67 80 81
3 68 69 82
3 68 81 82
3 69 82 83
3 70 71 80
3 70 80 82
3 70 82 83
3 71 72 78
3 71 78 79
3 71 79 80
3 72 73 76
3 72 76 77
3 72 77 78
3 73 74 75
3 73 75 76
3 80 81 82
