ply
format ascii 1.0
element vertex 24
property float x
property float y
property float z
element face 45
property list uchar uint vertex_indices
end_header
0.0 0.0 0.0
500.0 0.0 0.0
500.0 300.0 0.0
0.0 300.0 0.0
-0.0 200.0 -0.0
100.0 200.0 7.88860905221e-30
204.132231405 239.669421488 -0.0
400.0 200.0 0.0
400.0 100.0 0.0
340.0 100.0 -3.50105701107e-15
200.0 240.0 0.0
25.7142857143 91.4285714286 0.0
-0.0 -0.0 500.0
500.0 -0.0 500.0
500.0 300.0 500.0
4.05074815758e-29 300.0 500.0
193.670886076 240.506329114 500.0
300.0 200.0 500.0
400.0 200.0 500.0
381.052631579 96.8421052632 500.0
200.0 240.0 500.0
60.0 100.0 500.0
-0.0 100.0 500.0
-2.01948391737e-29 200.0 500.0
3 0 1 9
3 0 1 12
3 0 9 11
3 0 11 22
3 0 12 22
3 1 2 7
3 1 2 13
3 1 7 8
3 1 8 9
3 1 12 13
3 2 3 14
3 2 3 6
3 2 6 7
3 2 13 14
3 3 4 15
3 3 4 5
3 3 5 6
3 3 14 15
3 4 15 23
3 4 5 23
3 5 6 16
3 5 16 23
3 6 7 17
3 6 16 17
3 7 8 18
3 7 17 18
3 8 9 19
3 8 18 19
3 9 10 20
3 9 10 11
3 9 11 20
3 9 19 20
3 10 11 20
3 11 20 21
3 11 21 22
3 12 13 19
3 12 19 21
3 12 21 22
3 13 14 18
3 13 18 19
3 14 15 16
3 14 16 17
3 14 17 18
3 15 16 23
3 19 20 21
