ply
format ascii 1.0
element vertex 64
property float x
property float y
property float z
element face 125
property list uchar uint vertex_indices
end_header
0.0 0.0 0.0
500.0 0.0 0.0
500.0 300.0 0.0
0.0 300.0 0.0
0.0 200.0 0.0
100.0 200.0 0.0
200.0 250.0 0.0
300.0 200.0 0.0
400.0 200.0 0.0
400.0 100.0 0.0
340.0 100.0 0.0
200.0 240.0 0.0
60.0 100.0 0.0
0.0 100.0 0.0
0.0 0.0 100.0
500.0 0.0 100.0
500.0 300.0 100.0
0.0 300.0 100.0
0.0 200.0 100.0
200.0 250.0 100.0
300.0 200.0 100.0
400.0 200.0 100.0
400.0 100.0 100.0
340.0 100.0 100.0
200.0 240.0 150.0
60.0 100.0 100.0
0.0 100.0 100.0
0.0 0.0 200.0
500.0 0.0 200.0
500.0 300.0 200.0
0.0 300.0 200.0
0.0 200.0 200.0
100.0 200.0 200.0
200.0 250.0 200.0
300.0 200.0 200.0
400.0 200.0 200.0
400.0 100.0 200.0
340.0 100.0 200.0
60.0 100.0 275.0
0.0 100.0 200.0
0.0 0.0 300.0
500.0 0.0 300.0
500.0 300.0 300.0
0.0 300.0 300.0
0.0 200.0 300.0
100.0 200.0 500.0
200.0 250.0 500.0
300.0 200.0 300.0
400.0 200.0 300.0
400.0 100.0 300.0
340.0 100.0 300.0
200.0 240.0 500.0
-0.0 100.0 500.0
-0.0 -0.0 500.0
500.0 -0.0 500.0
500.0 300.0 500.0
-0.0 300.0 500.0
-0.0 200.0 500.0
300.0 200.0 400.0
400.0 200.0 500.0
400.0 100.0 500.0
340.0 100.0 500.0
300.0 200.0 500.0
60.0 100.0 500.0
3 0 1 10
3 0 1 14
3 0 10 12
3 0 12 13
3 0 13 26
3 0 14 26
3 1 2 8
3 1 2 15
3 1 8 9
3 1 9 10
3 1 14 15
3 2 3 16
3 2 3 6
3 2 6 7
3 2 7 8
3 2 15 16
3 3 4 17
3 3 4 5
3 3 5 6
3 3 16 17
3 4 17 18
3 4 5 18
3 5 31 32
3 5 6 19
3 5 18 31
3 5 19 32
3 6 7 19
3 7 8 20
3 7 19 20
3 8 9 21
3 8 20 21
3 9 10 22
3 9 21 22
3 10 11 23
3 10 11 12
3 10 22 23
3 11 23 24
3 11 12 24
3 12 13 25
3 12 24 25
3 13 25 26
3 14 15 27
3 14 26 39
3 14 27 39
3 15 16 28
3 15 27 28
3 16 17 29
3 16 28 29
3 17 18 30
3 17 29 30
3 18 30 31
3 19 32 33
3 19 20 33
3 20 33 34
3 20 21 34
3 21 34 35
3 21 22 35
3 22 35 36
3 22 23 36
3 23 36 37
3 23 24 37
3 24 37 50
3 24 38 51
3 24 50 51
3 24 25 38
3 25 26 38
3 26 38 39
3 27 39 52
3 27 40 52
3 27 28 40
3 28 40 41
3 28 29 41
3 29 41 42
3 29 30 42
3 30 31 43
3 30 42 43
3 31 32 44
3 31 43 44
3 32 33 45
3 32 44 45
3 33 34 46
3 33 45 46
3 34 35 47
3 34 46 47
3 35 36 48
3 35 47 48
3 36 37 49
3 36 48 49
3 37 49 50
3 38 39 52
3 38 51 63
3 38 52 63
3 40 41 53
3 40 52 53
3 41 42 54
3 41 53 54
3 42 43 55
3 42 54 55
3 43 44 56
3 43 55 56
3 44 45 56
3 44 45 57
3 44 56 57
3 45 46 56
3 45 56 57
3 46 47 58
3 46 55 56
3 46 55 62
3 46 58 62
3 47 48 58
3 48 49 59
3 48 58 59
3 49 59 60
3 49 50 60
3 50 60 61
3 50 51 61
3 51 61 63
3 52 53 63
3 53 61 63
3 53 54 61
3 54 59 60
3 54 60 61
3 54 55 59
3 55 59 62
3 58 59 62
